<?xml version="1.0" encoding="UTF-8"?>
<svg version="1.1" xmlns="http://www.w3.org/2000/svg" width="512" height="512">
<path d="M0 0 C13.1767473 6.73561738 25.46588062 14.95133921 37.04296875 24.15234375 C38.38681641 25.20808594 38.38681641 25.20808594 39.7578125 26.28515625 C79.51155211 58.11096214 107.75638639 100.65448672 123.04296875 149.15234375 C123.33365234 150.07402344 123.62433594 150.99570313 123.92382812 151.9453125 C132.91574421 181.04497912 132.91574421 181.04497912 126.04296875 194.15234375 C121.50031424 201.69819762 115.3394694 207.26339355 106.77734375 209.83203125 C106.019375 210.02023437 105.26140625 210.2084375 104.48046875 210.40234375 C99.72096053 211.68374981 95.7833805 213.91830706 91.60546875 216.46484375 C56.27295037 237.86881058 17.49853592 253.51188655 -21.5390625 266.75 C-22.67802979 267.14082764 -23.81699707 267.53165527 -24.99047852 267.93432617 C-27.04009247 268.630806 -29.09614239 269.30881598 -31.15991211 269.9621582 C-37.27237736 272.03437345 -41.27190274 274.79657892 -45.93359375 279.24853516 C-57.97680715 290.57973425 -72.97325974 294.23670523 -88.91992188 294.58203125 C-93.92081429 294.77178843 -97.7753675 295.13191011 -101.95703125 298.15234375 C-103.46830653 300.5744066 -104.6595375 302.77073078 -105.83203125 305.33984375 C-110.41070214 314.53348926 -115.29192307 320.62031644 -125.10351562 324.38256836 C-131.12394503 326.00666264 -137.31247208 325.25742846 -143.47460938 324.90820312 C-149.53069332 324.66743463 -149.53069332 324.66743463 -155 326.96875 C-160.21580346 335.45354006 -160.44609098 344.68282544 -160.33203125 354.40234375 C-160.32623047 355.62018555 -160.32042969 356.83802734 -160.31445312 358.09277344 C-160.19004647 366.93255767 -159.32253748 375.50503683 -158.0402832 384.24194336 C-154.55830958 408.20311188 -154.55830958 408.20311188 -160.95703125 418.15234375 C-163.74138221 421.20660628 -166.86094479 423.87961875 -171.05859375 424.42578125 C-177.67286634 424.69199036 -181.94606149 423.57174069 -186.95703125 419.15234375 C-192.02085823 412.88918933 -193.3037498 406.81513033 -193.20703125 398.90234375 C-193.20316406 398.12093018 -193.19929688 397.3395166 -193.1953125 396.53442383 C-193.10336379 390.15101214 -192.45560613 383.89730193 -191.67773438 377.56689453 C-189.82775714 362.19655451 -190.34523762 347.50982889 -198.95703125 334.15234375 C-200.83153119 332.24007051 -202.81668439 330.79175836 -204.95703125 329.15234375 C-210.52068974 321.64439601 -211.67784671 315.4382977 -210.95703125 306.15234375 C-210.05019116 301.87395058 -208.70981996 297.79821608 -207.29296875 293.6640625 C-206.90947769 292.49980743 -206.52598663 291.33555237 -206.13087463 290.13601685 C-205.09679681 287.0111859 -204.04683963 283.89233582 -202.98783493 280.77588272 C-202.10323131 278.16438917 -201.23125568 275.54874824 -200.35903835 272.93309689 C-193.22699412 251.55248956 -185.8464996 230.26582008 -177.95703125 209.15234375 C-177.45843597 207.81511261 -177.45843597 207.81511261 -176.94976807 206.4508667 C-159.04645195 158.47498015 -139.11183214 111.4538173 -117.51953125 65.02734375 C-117.0916481 64.10701355 -117.0916481 64.10701355 -116.65512085 63.16809082 C-113.81320304 57.06964937 -110.91559885 51.01153196 -107.83203125 45.03125 C-107.35435303 44.1026416 -106.8766748 43.1740332 -106.38452148 42.21728516 C-105.50727576 40.52869305 -104.6171693 38.84668671 -103.71118164 37.17333984 C-101.48960234 32.99255044 -101.48960234 32.99255044 -101.07421875 28.36328125 C-101.92251049 26.23879839 -102.89031047 24.32711043 -104.01953125 22.33984375 C-107.62731677 14.43707548 -107.30017676 3.83811665 -104.45703125 -4.28515625 C-100.01294997 -13.51517121 -93.36905851 -19.10290651 -83.95703125 -22.84765625 C-58.63918047 -31.28693984 -22.12082891 -10.97360881 0 0 Z " fill="#411032" transform="translate(312.95703125,56.84765625)"/>
<path d="M0 0 C20.79040232 6.76425324 42.07106776 15.30804109 60 28 C57.65872867 30.53130959 55.13026419 32.30459437 52.25 34.1875 C41.9158923 41.38232208 34.79204747 51.62789973 32 64 C31.70724495 67.27596771 31.66614139 70.52482121 31.6875 73.8125 C31.69241455 74.70106689 31.6973291 75.58963379 31.70239258 76.50512695 C31.88574834 86.74578109 34.56540103 94.3611866 40 103 C40.38414062 103.66773438 40.76828125 104.33546875 41.1640625 105.0234375 C47.25953615 114.48451009 59.01531277 120.61923643 69.66015625 123.40625 C84.95822262 126.12590624 98.87369982 122.6436973 111.6328125 113.87890625 C118.18062994 108.68171122 122.27804979 102.40959672 126 95 C130.02633899 96.342113 131.04483875 98.87321507 133.0625 102.375 C133.4538916 103.04563477 133.8452832 103.71626953 134.24853516 104.40722656 C135.5137927 106.59672892 136.75891107 108.79671852 138 111 C138.4017041 111.70479492 138.8034082 112.40958984 139.21728516 113.13574219 C159 148.12916667 159 148.12916667 159 159 C155.90034597 160.5094588 152.79458597 162.00590667 149.6875 163.5 C148.36588867 164.14388672 148.36588867 164.14388672 147.01757812 164.80078125 C146.17001953 165.20683594 145.32246094 165.61289062 144.44921875 166.03125 C143.27879028 166.59682617 143.27879028 166.59682617 142.0847168 167.17382812 C140 168 140 168 137 168 C136.38125 166.64068359 136.38125 166.64068359 135.75 165.25390625 C129.17647387 151.21493943 121.2180902 142.49132411 106.5625 136.625 C94.96802979 133.08390536 81.856433 133.45667494 70.796875 138.453125 C58.02577071 145.51647318 49.61254845 156.16235465 45 170 C43.98233232 181.36438514 43.93856803 192.21838572 48.90625 202.63671875 C50 205 50 205 50 208 C46.08820439 209.67826923 42.16982376 211.34057804 38.25 213 C36.58324219 213.71542969 36.58324219 213.71542969 34.8828125 214.4453125 C33.27792969 215.12207031 33.27792969 215.12207031 31.640625 215.8125 C30.65610352 216.23144531 29.67158203 216.65039062 28.65722656 217.08203125 C26 218 26 218 22 218 C21.5875 217.16597656 21.175 216.33195313 20.75 215.47265625 C13.15993132 200.6821876 3.19754895 190.76297838 -12.6484375 184.69140625 C-25.12634904 181.02265153 -41.31716193 180.93999301 -53.1796875 186.453125 C-54.11039063 186.96359375 -55.04109375 187.4740625 -56 188 C-57.45792969 188.79664063 -57.45792969 188.79664063 -58.9453125 189.609375 C-72.04808852 197.39249536 -80.83931297 208.95109867 -85.4440918 223.48999023 C-86.51264562 228.31467264 -86.34815838 233.14537883 -86.25 238.0625 C-86.24484375 239.09955078 -86.2396875 240.13660156 -86.234375 241.20507812 C-86.17675337 246.88440975 -85.83622425 252.38246131 -85 258 C-88.12305373 259.17192435 -91.24874739 260.33663876 -94.375 261.5 C-95.26445313 261.83386719 -96.15390625 262.16773438 -97.0703125 262.51171875 C-97.92109375 262.82753906 -98.771875 263.14335937 -99.6484375 263.46875 C-100.82672119 263.90864258 -100.82672119 263.90864258 -102.02880859 264.35742188 C-104 265 -104 265 -106 265 C-105.39329655 260.90380256 -104.50470025 257.08644763 -103.2421875 253.14453125 C-102.87206543 251.98783936 -102.50194336 250.83114746 -102.12060547 249.6394043 C-101.70604787 248.36356003 -101.29082173 247.08793283 -100.875 245.8125 C-100.65958557 245.1488443 -100.44417114 244.4851886 -100.222229 243.80142212 C-81.35040019 185.75992385 -59.04257673 129.07318606 -35 73 C-34.35788574 73.21076172 -33.71577148 73.42152344 -33.05419922 73.63867188 C-22.02071616 77.12833163 -12.3416155 77.5329429 -1.69140625 72.484375 C7.7112515 67.29858408 13.27490387 61.05775956 17 51 C19.663046 39.90087121 18.43186758 29.33550496 12.52734375 19.5625 C8.31409572 13.66594484 3.10163582 9.81812624 -3 6 C-2.01 4.02 -1.02 2.04 0 0 Z " fill="#F3892D" transform="translate(222,94)"/>
<path d="M0 0 C1.17860596 0.3609375 2.35721191 0.721875 3.5715332 1.09375 C19.743493 6.14700766 35.11932005 12.53156346 50.0625 20.5 C50.71138184 20.84111816 51.36026367 21.18223633 52.02880859 21.53369141 C68.05926477 30.00879345 82.52971741 40.46070017 96.0625 52.5 C96.56587891 52.94166504 97.06925781 53.38333008 97.58789062 53.83837891 C134.01903486 85.86177559 166.63084348 136.09621837 172.37890625 185.203125 C172.70746827 192.11352619 171.09202425 198.07436362 166.44921875 203.32421875 C160.49947496 208.77265375 154.69155387 209.99170924 146.7421875 209.80859375 C140.4283644 209.08149167 136.58377365 205.46484513 132.62133789 200.74584961 C129.50202302 196.25178892 127.69288833 191.12371816 125.6875 186.0625 C124.72772196 183.72110993 123.76418434 181.38125743 122.796875 179.04296875 C122.09788086 177.35179932 122.09788086 177.35179932 121.38476562 175.62646484 C118.61368064 169.07430195 115.41653854 162.76921533 112.0625 156.5 C111.72573242 155.85981934 111.38896484 155.21963867 111.04199219 154.56005859 C102.56897568 138.53226411 92.134011 124.0063454 80.0625 110.5 C79.59424805 109.97535156 79.12599609 109.45070313 78.64355469 108.91015625 C69.71384667 98.95173613 60.568456 89.8131673 50.0625 81.5 C49.09699219 80.71753906 48.13148438 79.93507813 47.13671875 79.12890625 C26.69745764 62.89696445 3.71720017 50.54743713 -20.70117188 41.46655273 C-28.72701378 38.38175387 -34.75757772 34.77302056 -39.9375 27.8125 C-41.87634923 21.39006193 -42.15062726 14.34623351 -39.375 8.125 C-36.42338991 3.11873553 -32.34833409 -0.29458296 -27.1875 -2.875 C-17.5710584 -4.72431569 -9.21120776 -2.89041576 0 0 Z " fill="#F7A76D" transform="translate(258.9375,47.5)"/>
<path d="M0 0 C20.79040232 6.76425324 42.07106776 15.30804109 60 28 C57.65872867 30.53130959 55.13026419 32.30459437 52.25 34.1875 C41.9158923 41.38232208 34.79204747 51.62789973 32 64 C31.70724495 67.27596771 31.66614139 70.52482121 31.6875 73.8125 C31.69241455 74.70106689 31.6973291 75.58963379 31.70239258 76.50512695 C31.90182283 87.64356211 34.99887516 97.20922387 42.375 105.75 C44 108 44 108 43.97265625 110.19921875 C42.55603134 114.27841577 39.94656468 116.90668331 37.0625 120.0625 C35.88040241 121.38703281 34.69942741 122.71256828 33.51953125 124.0390625 C32.92865723 124.69938477 32.3377832 125.35970703 31.72900391 126.04003906 C28.32058455 129.90374855 25.08711372 133.91271078 21.828125 137.90234375 C21.22484375 138.59457031 20.6215625 139.28679687 20 140 C19.67 140 19.34 140 19 140 C18.97421875 139.31035156 18.9484375 138.62070313 18.921875 137.91015625 C18.31512509 127.8574135 15.17567079 119.2829992 8 112 C-0.87419928 105.28479216 -9.9428113 102.79544592 -21 104 C-29.91219078 106.10797327 -36.62533215 111.26154885 -41.89453125 118.66015625 C-46.43954672 126.56869605 -47.28854103 134.01811108 -46 143 C-44.29181819 148.82334706 -42.37203413 153.7433568 -38 158 C-38 158.66 -38 159.32 -38 160 C-37.2265625 160.37125 -37.2265625 160.37125 -36.4375 160.75 C-33.85905755 162.07227818 -31.3699005 163.52043033 -28.87890625 165 C-24.10398654 167.54132941 -20.10513833 168.3212072 -14.6875 168.625 C-13.43324219 168.69976562 -12.17898437 168.77453125 -10.88671875 168.8515625 C-9.45779297 168.92503906 -9.45779297 168.92503906 -8 169 C-8.37511719 169.43570313 -8.75023437 169.87140625 -9.13671875 170.3203125 C-9.64847656 170.91585937 -10.16023438 171.51140625 -10.6875 172.125 C-11.18636719 172.70507812 -11.68523437 173.28515625 -12.19921875 173.8828125 C-14.16336388 176.08533534 -14.16336388 176.08533534 -15.98828125 179.20703125 C-17.7677698 181.33907575 -18.68462441 181.93626226 -21.44018555 182.49316406 C-24.4711249 182.63797821 -27.46632951 182.624331 -30.5 182.5625 C-40.12952933 182.67033348 -47.43180109 183.28992475 -56 188 C-56.969375 188.52980469 -57.93875 189.05960938 -58.9375 189.60546875 C-72.04462069 197.38782166 -80.83832043 208.94796487 -85.4440918 223.48999023 C-86.51264562 228.31467264 -86.34815838 233.14537883 -86.25 238.0625 C-86.24484375 239.09955078 -86.2396875 240.13660156 -86.234375 241.20507812 C-86.17675337 246.88440975 -85.83622425 252.38246131 -85 258 C-88.12305373 259.17192435 -91.24874739 260.33663876 -94.375 261.5 C-95.26445313 261.83386719 -96.15390625 262.16773438 -97.0703125 262.51171875 C-97.92109375 262.82753906 -98.771875 263.14335937 -99.6484375 263.46875 C-100.82672119 263.90864258 -100.82672119 263.90864258 -102.02880859 264.35742188 C-104 265 -104 265 -106 265 C-105.39329655 260.90380256 -104.50470025 257.08644763 -103.2421875 253.14453125 C-102.87206543 251.98783936 -102.50194336 250.83114746 -102.12060547 249.6394043 C-101.70604787 248.36356003 -101.29082173 247.08793283 -100.875 245.8125 C-100.65958557 245.1488443 -100.44417114 244.4851886 -100.222229 243.80142212 C-81.35040019 185.75992385 -59.04257673 129.07318606 -35 73 C-34.35788574 73.21076172 -33.71577148 73.42152344 -33.05419922 73.63867188 C-22.02071616 77.12833163 -12.3416155 77.5329429 -1.69140625 72.484375 C7.7112515 67.29858408 13.27490387 61.05775956 17 51 C19.663046 39.90087121 18.43186758 29.33550496 12.52734375 19.5625 C8.31409572 13.66594484 3.10163582 9.81812624 -3 6 C-2.01 4.02 -1.02 2.04 0 0 Z " fill="#F9B124" transform="translate(222,94)"/>
<path d="M0 0 C1.90912305 2.86368457 3.1835815 5.61599209 4.51171875 8.76953125 C9.39789465 16.0923828 16.62969418 18.82832798 24.60726929 21.89404297 C56.27657894 34.12446984 84.5205202 51.43082003 109 75 C109.57282715 75.55091309 110.1456543 76.10182617 110.73583984 76.66943359 C118.35861781 84.04505313 125.57634769 91.53589342 132 100 C132.47228027 100.61230469 132.94456055 101.22460938 133.43115234 101.85546875 C149.99801974 123.45035168 162.06395102 147.42841022 171.61328125 172.8359375 C175.07696083 180.73898104 180.05445111 185.69207719 187.8125 189.3125 C192.50305078 190.32418742 197.21813227 190.67667087 202 191 C201.10680537 197.79135914 199.36585194 202.55532436 194 207 C187.78129326 211.08934412 181.32120564 212.07762814 174 211 C168.27947556 209.15149402 164.35402207 204.83220814 161 200 C158.95922701 195.95118984 157.29437914 191.77569496 155.625 187.5625 C154.66522196 185.22110993 153.70168434 182.88125743 152.734375 180.54296875 C152.03538086 178.85179932 152.03538086 178.85179932 151.32226562 177.12646484 C148.55118064 170.57430195 145.35403854 164.26921533 142 158 C141.66323242 157.35981934 141.32646484 156.71963867 140.97949219 156.06005859 C132.50647568 140.03226411 122.071511 125.5063454 110 112 C109.53174805 111.47535156 109.06349609 110.95070313 108.58105469 110.41015625 C99.65134667 100.45173613 90.505956 91.3131673 80 83 C79.03449219 82.21753906 78.06898438 81.43507813 77.07421875 80.62890625 C56.63495764 64.39696445 33.65470017 52.04743713 9.23632812 42.96655273 C1.21048622 39.88175387 -4.82007772 36.27302056 -10 29.3125 C-11.93884923 22.89006193 -12.21312726 15.84623351 -9.4375 9.625 C-7.08503119 5.56550508 -3.73302218 2.76830859 0 0 Z " fill="#DF8354" transform="translate(229,46)"/>
<path d="M0 0 C2.28125 1.328125 2.28125 1.328125 4.5 3.25 C5.35207031 3.97574219 6.20414062 4.70148438 7.08203125 5.44921875 C8.04496094 6.29097656 9.00789063 7.13273438 10 8 C11.16881355 8.9877627 12.33947745 9.97333892 13.51171875 10.95703125 C22.38357102 18.43005622 30.47687066 26.15674438 38 35 C38.74378906 35.81984375 39.48757813 36.6396875 40.25390625 37.484375 C45.91025233 43.97687659 45.91025233 43.97687659 46.3125 48.5625 C41.82121941 60.32537774 35.38655724 68.41669556 24 74 C14.35481893 78.1582142 3.34875934 78.55561607 -6.59375 75.1015625 C-17.10686399 70.28874084 -25.59620994 62.07206235 -30.12109375 51.39453125 C-31.25539843 47.0135945 -31.46887966 42.88657306 -31.5 38.375 C-31.50636475 37.58762451 -31.51272949 36.80024902 -31.51928711 35.98901367 C-31.29237339 25.47972961 -27.35293304 16.61891729 -20.11328125 9.01953125 C-14.24773018 3.61492722 -8.26838047 -0.81833586 0 0 Z " fill="#AC1E32" transform="translate(295,131)"/>
<path d="M0 0 C9.57861017 5.3531726 15.04155527 12.41372831 18.49609375 22.77734375 C19.43516553 34.61580605 18.01660724 42.90169567 10.37109375 52.08984375 C4.76407153 57.99392675 -2.50088622 62.41141543 -10.76171875 63.015625 C-18.51668303 63.16445765 -24.74832544 62.96002515 -31.50390625 58.77734375 C-32.12652344 58.42671875 -32.74914062 58.07609375 -33.390625 57.71484375 C-38.56866749 54.47997122 -41.55483752 50.0409846 -44.50390625 44.77734375 C-45.01824219 43.87048828 -45.01824219 43.87048828 -45.54296875 42.9453125 C-49.01251245 35.50362765 -48.89651164 26.06380288 -46.40234375 18.38671875 C-41.47151832 7.89223468 -35.08566103 2.25424 -24.50390625 -2.22265625 C-16.57803251 -4.86461416 -7.41278318 -3.61965856 0 0 Z " fill="#431132" transform="translate(222.50390625,200.22265625)"/>
<path d="M0 0 C6.40378588 5.02744981 11.87489084 11.82623403 15.0625 19.375 C15.0625 20.365 15.0625 21.355 15.0625 22.375 C1.71247543 27.79513669 -11.70701604 32.95782167 -25.25 37.875 C-26.57707977 38.35791504 -26.57707977 38.35791504 -27.93096924 38.85058594 C-33.15745544 40.7521972 -38.38644199 42.64677861 -43.61737061 44.53613281 C-45.74589137 45.30572189 -47.87339135 46.07804859 -50.00048828 46.8515625 C-53.26753629 48.03651598 -56.53859084 49.20916498 -59.8125 50.375 C-60.72555908 50.70693359 -61.63861816 51.03886719 -62.5793457 51.38085938 C-63.3962085 51.66767578 -64.21307129 51.95449219 -65.0546875 52.25 C-65.74159668 52.49492187 -66.42850586 52.73984375 -67.13623047 52.9921875 C-68.9375 53.375 -68.9375 53.375 -71.9375 52.375 C-76.01160348 39.72383655 -74.68349486 27.25975392 -68.9375 15.375 C-61.99958854 3.9265853 -51.66672781 -3.56977026 -39.1875 -7.9375 C-25.24862046 -10.78672989 -11.72926185 -7.87351003 0 0 Z " fill="#AC1E32" transform="translate(218.9375,294.625)"/>
<path d="M0 0 C-9.97823764 12.9347525 -23.71534917 23.03470819 -40 26 C-44.00082144 26.35082304 -48.00737167 26.41156061 -52.02148438 26.47851562 C-58.66711553 26.69842755 -63.45736676 27.8712838 -68.6875 32.25 C-70.77550853 34.73303717 -72.36288317 37.18684254 -73.90234375 40.03515625 C-81.30501982 53.28620985 -81.30501982 53.28620985 -87.375 56.1015625 C-93.57749347 57.63881842 -99.88310337 57.03725575 -106.234375 56.83398438 C-111.92216532 56.73140607 -116.13668033 56.65548404 -121 60 C-129.06820212 68.06820212 -131.13288679 77.62020093 -131.203125 88.7578125 C-131.20991272 89.49478363 -131.21670044 90.23175476 -131.22369385 90.99105835 C-131.24062329 93.36908217 -131.24689077 95.74691984 -131.25 98.125 C-131.25233643 98.93412842 -131.25467285 99.74325684 -131.25708008 100.5769043 C-131.2699169 112.33660029 -130.423481 123.49625556 -128.30761719 135.07519531 C-127.33479199 141.16230153 -127.29933737 146.82425815 -129.1875 152.6875 C-131 155 -131 155 -133.4375 156.125 C-136 156 -136 156 -138.1875 154.375 C-144.34541768 146.30600442 -142.08889198 136.36060367 -141 126.9375 C-138.692493 106.61368835 -138.23721528 86.35037962 -151.0625 69.25 C-153.03587577 66.88347369 -153.03587577 66.88347369 -155.625 64.5 C-158.01027188 61.98918749 -158.83839227 60.1970855 -160 57 C-159.00935547 56.66492432 -158.01871094 56.32984863 -156.99804688 55.98461914 C-119.75774775 43.3762406 -82.59226139 30.57035034 -45.875 16.5 C-44.92614929 16.13676636 -43.97729858 15.77353271 -42.99969482 15.39929199 C-34.56874246 12.16535577 -26.15131688 8.91134791 -17.81738281 5.43359375 C-16.29710983 4.80088562 -16.29710983 4.80088562 -14.74612427 4.15539551 C-12.78919582 3.33737899 -10.83517765 2.51235676 -8.88449097 1.67956543 C-8.01140289 1.31415649 -7.13831482 0.94874756 -6.23876953 0.57226562 C-5.4667923 0.24407837 -4.69481506 -0.08410889 -3.89944458 -0.42224121 C-2 -1 -2 -1 0 0 Z " fill="#F7AF24" transform="translate(273,314)"/>
<path d="M0 0 C5.53555495 4.54289214 9.90389263 10.54098157 12.5625 17.1875 C12.60628051 18.85359155 12.61289711 20.52159547 12.5625 22.1875 C-3.72733892 29.94620284 -20.10486804 37.44925758 -36.6875 44.5625 C-37.46292145 44.89645782 -38.2383429 45.23041565 -39.03726196 45.57449341 C-41.23649832 46.52029443 -43.43801153 47.46053221 -45.640625 48.3984375 C-46.30074081 48.68213699 -46.96085663 48.96583649 -47.64097595 49.25813293 C-52.20584862 51.1875 -52.20584862 51.1875 -54.4375 51.1875 C-59.9003073 41.17235329 -62.59321572 30.4441005 -59.6328125 19.10546875 C-55.34380489 7.58430692 -47.45924007 -0.5235442 -36.4375 -5.8125 C-24.00646645 -10.87699515 -10.71643561 -7.45047428 0 0 Z " fill="#AB1E32" transform="translate(336.4375,245.8125)"/>
<path d="M0 0 C4.73559601 3.54392524 7.94037309 7.70892769 9.78515625 13.3359375 C10.5366241 19.8649244 10.39835699 26.66488733 6.78515625 32.3359375 C2.18510735 37.37408629 -2.37357385 40.91777394 -9.30078125 41.671875 C-16.2273019 41.75413772 -20.72271582 41.70722299 -26.21484375 37.3359375 C-31.82236766 31.83273961 -34.48925632 27.03390831 -34.65234375 19.0234375 C-34.53333737 12.82110492 -33.50449607 8.86218935 -29.21484375 4.3359375 C-20.97318066 -3.10603946 -10.1799136 -5.89473436 0 0 Z " fill="#E72832" transform="translate(220.21484375,210.6640625)"/>
<path d="M0 0 C20.79040232 6.76425324 42.07106776 15.30804109 60 28 C57.62068807 30.56592463 55.02492357 32.42702702 52.125 34.375 C48.32796084 36.98962784 45.09591281 39.59449591 42 43 C37.32894208 41.44298069 33.91294315 38.91552627 30 36 C30.05800781 37.01578125 30.11601562 38.0315625 30.17578125 39.078125 C30.67211777 51.52296649 28.20568451 61.19038802 20.00390625 70.96875 C11.15241098 79.9410259 0.86807333 84.33022252 -11.625 84.4375 C-17.93207166 84.375734 -23.16239028 83.54732061 -29 81 C-25.81679119 79.9389304 -23.31375152 80.0342138 -19.99609375 80.16821289 C-8.1528655 80.57672622 1.11359545 78.62629222 10.4375 70.8125 C19.62171564 61.79228821 24.0039979 51.33048924 24.375 38.5 C24.47102988 34.55031528 24.47102988 34.55031528 22.62890625 31.23046875 C20.94528823 29.87663192 20.94528823 29.87663192 18.5625 28.8125 C15.41791352 26.58828029 14.65736441 24.53887289 13.078125 21.1171875 C9.48987791 14.07070227 3.6172695 10.01447683 -3 6 C-2.01 4.02 -1.02 2.04 0 0 Z " fill="#F38A2C" transform="translate(222,94)"/>
<path d="M0 0 C-9.97823764 12.9347525 -23.71534917 23.03470819 -40 26 C-44.00082144 26.35082304 -48.00737167 26.41156061 -52.02148438 26.47851562 C-58.66711553 26.69842755 -63.45736676 27.8712838 -68.6875 32.25 C-70.77550853 34.73303717 -72.36288317 37.18684254 -73.90234375 40.03515625 C-81.30501982 53.28620985 -81.30501982 53.28620985 -87.375 56.1015625 C-93.57749347 57.63881842 -99.88310337 57.03725575 -106.234375 56.83398438 C-111.92216532 56.73140607 -116.13668033 56.65548404 -121 60 C-130.28677266 69.28677266 -131.09204767 80.35017085 -131.5625 92.875 C-131.60568359 93.94492187 -131.64886719 95.01484375 -131.69335938 96.1171875 C-131.79892817 98.74467754 -131.90103791 101.37225422 -132 104 C-138.04425723 92.61977292 -137.45615251 75.19623049 -134 63 C-131.30163485 57.05294523 -128.01653124 53.30178067 -122.02734375 50.65625 C-116.00532506 48.70692603 -109.9562644 48.73541343 -103.68164062 48.65820312 C-98.3589391 48.46667495 -95.20732768 47.55072957 -91 44 C-88.44831042 40.81213576 -86.64876379 37.05477366 -86 33 C-86.99 32.505 -86.99 32.505 -88 32 C-86.41191528 31.42838135 -86.41191528 31.42838135 -84.79174805 30.84521484 C-62.7706084 22.90694035 -40.88410964 14.72412978 -19.19140625 5.92578125 C-18.55935776 5.6698822 -17.92730927 5.41398315 -17.27610779 5.15032959 C-14.47167629 4.01284735 -11.67419341 2.86241224 -8.88623047 1.68505859 C-7.98404785 1.30816895 -7.08186523 0.9312793 -6.15234375 0.54296875 C-5.38784912 0.21707764 -4.62335449 -0.10881348 -3.83569336 -0.44458008 C-2 -1 -2 -1 0 0 Z " fill="#F0882D" transform="translate(273,314)"/>
<path d="M0 0 C7.49127174 2.87165417 11.27701342 7.02655975 15 14 C17.19257799 20.57773398 17.33188952 29.25369086 14.25 35.5625 C13.53268249 36.72907173 12.78533653 37.87809067 12 39 C11.443125 39.886875 10.88625 40.77375 10.3125 41.6875 C4.56076862 47.43923138 -2.34121187 50.14154011 -10.375 50.1875 C-11.49648437 50.20167969 -12.61796875 50.21585938 -13.7734375 50.23046875 C-16.94884842 50.00365368 -19.14234718 49.35390668 -22 48 C-20.71487462 43.96263281 -19.2364202 40.13496935 -17.4609375 36.2890625 C-16.96625977 35.21575684 -16.47158203 34.14245117 -15.96191406 33.03662109 C-15.1763916 31.34786865 -15.1763916 31.34786865 -14.375 29.625 C-13.84100586 28.47209473 -13.30701172 27.31918945 -12.75683594 26.13134766 C-8.66550625 17.33732602 -4.43102451 8.62746537 0 0 Z " fill="#E52833" transform="translate(214,110)"/>
<path d="M0 0 C0 8.75818694 -14.97661624 20.23087279 -20.8125 26.125 C-28.44367379 33.75189822 -36.31744948 40.61612198 -45 47 C-45.90878906 47.7528125 -46.81757813 48.505625 -47.75390625 49.28125 C-50 51 -50 51 -52 51 C-55.13043964 41.60868108 -52.01419842 32.66863608 -48 24 C-41.09999463 12.54564866 -30.70642959 5.04725036 -18.25 0.6875 C-12.30364901 -0.62708586 -6.04873511 -0.15291746 0 0 Z " fill="#E62832" transform="translate(198,286)"/>
<path d="M0 0 C5.65383865 0.61069337 7.69696134 3.4086592 11.1953125 7.61328125 C16.34468693 14.42338467 16.73983239 20.73128501 16 29 C14.71279198 37.94916051 8.30311384 45.00546149 3 52 C-1.84250226 50.27512641 -3.44897779 46.61800655 -5.68505859 42.22583008 C-10.22430053 32.21471101 -9.50826118 20.14126169 -5.81542969 9.97045898 C-4.84811692 7.63297953 -3.72455303 5.53649775 -2.3125 3.4375 C-1.87550781 2.77621094 -1.43851562 2.11492187 -0.98828125 1.43359375 C-0.66214844 0.96050781 -0.33601563 0.48742187 0 0 Z " fill="#E72832" transform="translate(272,143)"/>
<path d="M0 0 C0.86625 0.4640625 0.86625 0.4640625 1.75 0.9375 C1.75 1.5975 1.75 2.2575 1.75 2.9375 C-29.57497069 20.74107525 -62.58424635 34.37851973 -96.3125 46.875 C-97.65900635 47.37930542 -97.65900635 47.37930542 -99.03271484 47.89379883 C-101.08389388 48.63656618 -103.16462082 49.29700608 -105.25 49.9375 C-105.91 49.6075 -106.57 49.2775 -107.25 48.9375 C-105.16772828 43.50872015 -103.00762146 41.45819672 -97.703125 39.04296875 C-95.94474787 38.31279837 -94.18565864 37.58389167 -92.41519165 36.88354492 C-89.75208381 35.8287748 -87.11154736 34.72193433 -84.46833801 33.61843872 C-83.03038511 33.01855033 -81.59137946 32.42118012 -80.15141296 31.82614136 C-71.90727582 28.41143254 -63.76906884 24.76521751 -55.63500977 21.09747314 C-53.92114031 20.32467042 -52.20662173 19.55330566 -50.49145508 18.78338623 C-41.88617653 14.9204492 -33.30917223 11.01720107 -24.83984375 6.86328125 C-24.20242752 6.55131805 -23.56501129 6.23935486 -22.90827942 5.91793823 C-19.98457293 4.48315303 -17.07075825 3.03190456 -14.16723633 1.55664062 C-12.66906372 0.81124023 -12.66906372 0.81124023 -11.140625 0.05078125 C-10.28500977 -0.38451904 -9.42939453 -0.81981934 -8.54785156 -1.26831055 C-5.09442908 -2.46189144 -3.19289288 -1.50775497 0 0 Z " fill="#EE862D" transform="translate(393.25,263.0625)"/>
<path d="M0 0 C3.30424567 1.81844393 5.63226504 3.36465214 7.75 6.5 C8.15734375 7.0878125 8.5646875 7.675625 8.984375 8.28125 C12.13159131 13.60730836 11.63493794 20.3364081 10.609375 26.25390625 C8.84420634 32.03596513 4.9255254 35.66218975 0 39 C-5.75605477 41.8589676 -11.71318515 41.64182735 -18 41 C-22.13968928 39.59236696 -24.54600662 37.68099006 -27 34 C-26.154375 33.78085938 -25.30875 33.56171875 -24.4375 33.3359375 C-15.9271439 30.95690614 -9.32430493 28.81845489 -4.18359375 21.3671875 C-0.13603735 14.17361859 0.78181214 8.16559347 0 0 Z " fill="#AC1E32" transform="translate(219,211)"/>
<path d="M0 0 C0.99 0.33 1.98 0.66 3 1 C3.33 3.64 3.66 6.28 4 9 C-4.91 11.97 -4.91 11.97 -14 15 C-14 14.34 -14 13.68 -14 13 C-12.4609375 11.484375 -12.4609375 11.484375 -10.375 9.75 C-6.72639996 6.65323448 -3.34103014 3.42455589 0 0 Z " fill="#F1892C" transform="translate(133,343)"/>
</svg>
